<svg width="128" height="128" viewBox="0 0 128 128" fill="none" xmlns="http://www.w3.org/2000/svg" role="img" aria-labelledby="title desc">
  <title id="title">FlowLog</title>
  <desc id="desc">Logo minimal con goccia, flusso e pillola nei colori dell'app.</desc>
  <rect width="128" height="128" rx="36" fill="#F9F9FF"/>
  <circle cx="64" cy="64" r="48" fill="#E7EEFF"/>
  <path d="M65.6 18C65.6 18 34 52.5 34 77.1C34 94.4 47.9 108 65.6 108C83.3 108 97.2 94.4 97.2 77.1C97.2 52.5 65.6 18 65.6 18Z" fill="#4FD1C5"/>
  <path d="M47 76C54.4 83.8 66.5 84.3 75 77.7C80 73.8 84.9 72.7 91 75" stroke="#006494" stroke-width="9" stroke-linecap="round"/>
  <path d="M45 56C51.9 62.2 61.3 62.9 69.6 57.9C74.7 54.8 79.2 53.7 84 55.4" stroke="#006A63" stroke-width="8" stroke-linecap="round"/>
  <rect x="71" y="82" width="32" height="14" rx="7" transform="rotate(-28 71 82)" fill="#FFAB67"/>
  <path d="M85.1 74.4L91.3 86" stroke="#8E4E11" stroke-width="3" stroke-linecap="round"/>
</svg>
